<?xml version="1.0" encoding="UTF-8"?><svg id="a" xmlns="http://www.w3.org/2000/svg" viewBox="0 0 108.99 122.39"><path d="m20.34,51.25c-.93-1.09-1.39-2.37-1.39-3.82s.46-2.73,1.39-3.82c.92-1.09,2.2-1.64,3.81-1.64h16.12c1.62,0,2.89.55,3.81,1.64.92,1.09,1.39,2.37,1.39,3.82s-.46,2.73-1.39,3.82c-.93,1.09-2.2,1.64-3.81,1.64h-16.12c-1.62,0-2.89-.55-3.81-1.64Zm11.09,13.98c-.93-1.09-1.39-2.37-1.39-3.82s.46-2.73,1.39-3.82c.92-1.09,2.2-1.64,3.81-1.64h38.31c1.62,0,2.89.55,3.81,1.64.92,1.09,1.39,2.37,1.39,3.82s-.46,2.73-1.39,3.82c-.92,1.09-2.2,1.64-3.81,1.64h-38.31c-1.62,0-2.89-.55-3.81-1.64Zm33.28,13.98c-.93-1.09-1.39-2.37-1.39-3.82s.46-2.73,1.39-3.82c.92-1.09,2.2-1.64,3.81-1.64h16.12c1.62,0,2.89.55,3.81,1.64.92,1.09,1.39,2.37,1.39,3.82s-.46,2.73-1.39,3.82c-.93,1.09-2.2,1.64-3.81,1.64h-16.12c-1.62,0-2.89-.55-3.81-1.64Z" style="fill:#f9bc15;"/><path d="m20.59,37.26c-.92-1.09-1.38-2.36-1.38-3.82s.46-2.73,1.38-3.82c.92-1.09,2.18-1.64,3.8-1.64h16.05c1.61,0,2.88.55,3.8,1.64.92,1.09,1.38,2.37,1.38,3.82s-.46,2.73-1.38,3.82c-.92,1.09-2.19,1.64-3.8,1.64h-16.05c-1.61,0-2.88-.55-3.8-1.64Z" style="fill:#ea4435;"/><path d="m20.59,93.17c-.92-1.09-1.38-2.36-1.38-3.82s.46-2.73,1.38-3.82c.92-1.09,2.18-1.64,3.8-1.64h16.05c1.61,0,2.88.55,3.8,1.64.92,1.09,1.38,2.37,1.38,3.82s-.46,2.73-1.38,3.82c-.92,1.09-2.19,1.64-3.8,1.64h-16.05c-1.61,0-2.88-.55-3.8-1.64Z" style="fill:#34a851;"/><path d="m31.63,23.28c-.92-1.09-1.38-2.36-1.38-3.82s.46-2.73,1.38-3.82c.92-1.09,2.18-1.64,3.8-1.64h38.13c1.61,0,2.88.55,3.8,1.64.92,1.09,1.38,2.37,1.38,3.82s-.46,2.73-1.38,3.82c-.92,1.09-2.19,1.64-3.8,1.64h-38.13c-1.61,0-2.88-.55-3.8-1.64Z" style="fill:#547dbf;"/><path d="m31.63,107.15c-.92-1.09-1.38-2.36-1.38-3.82s.46-2.73,1.38-3.82c.92-1.09,2.18-1.64,3.8-1.64h38.13c1.61,0,2.88.55,3.8,1.64.92,1.09,1.38,2.37,1.38,3.82s-.46,2.73-1.38,3.82c-.92,1.09-2.19,1.64-3.8,1.64h-38.13c-1.61,0-2.88-.55-3.8-1.64Z" style="fill:#66499d;"/><path d="m64.76,37.26c-.92-1.09-1.38-2.36-1.38-3.82s.46-2.73,1.38-3.82c.92-1.09,2.18-1.64,3.8-1.64h16.05c1.61,0,2.88.55,3.8,1.64.92,1.09,1.38,2.37,1.38,3.82s-.46,2.73-1.38,3.82c-.92,1.09-2.19,1.64-3.8,1.64h-16.05c-1.61,0-2.88-.55-3.8-1.64Z" style="fill:#ea4435;"/><path d="m64.76,93.17c-.92-1.09-1.38-2.36-1.38-3.82s.46-2.73,1.38-3.82c.92-1.09,2.18-1.64,3.8-1.64h16.05c1.61,0,2.88.55,3.8,1.64.92,1.09,1.38,2.37,1.38,3.82s-.46,2.73-1.38,3.82c-.92,1.09-2.19,1.64-3.8,1.64h-16.05c-1.61,0-2.88-.55-3.8-1.64Z" style="fill:#34a851;"/><path d="m108.03,86.2v-50.01c0-3.65-1.95-7.02-5.11-8.85L59.6,2.33c-3.16-1.83-7.06-1.83-10.22,0L6.07,27.34c-3.16,1.83-5.11,5.2-5.11,8.85v50.01c0,3.65,1.95,7.02,5.11,8.85l43.31,25.01c3.16,1.83,7.06,1.83,10.22,0l43.31-25.01c3.16-1.83,5.11-5.2,5.11-8.85Z" style="fill:none; stroke:#231f20; stroke-linecap:round; stroke-linejoin:round; stroke-width:1.93px;"/></svg>